<svg xmlns="http://www.w3.org/2000/svg" viewBox="0 0 179.36 96.87">
    <defs>
        <style>
            .cls-1 {
                fill: #ECB750;
            }

            .cls-2 {
                fill: #FBEFD8;
            }

        </style>
    </defs>
    <g id="Layer_2" data-name="Layer 2">
        <g id="Layer_1-2" data-name="Layer 1">
            <g id="pC0K7F">
                <path class="cls-1" d="M49.12,68.64C31.51,70.4,25.49,62.36,29.78,44.33c-4.4-1.7-9.21-2.61-12.8-5.2C12.67,36,12.8,30.81,14.46,25.64,4.62,22.47.15,15.65,0,5.71-.06,1.76,1.4.05,5.42,1.12a59.32,59.32,0,0,1,6.25,1.7C16.37,4.64,20.3,6.88,25.35,2,29.49-2,36,.36,42,6c10.14-7.09,17.54-6.16,26,3.26,10.36-9.71,26.7-6.63,31.31,7.62,8.73-.23,17.13-1.1,25.43-.5,8.51.61,15.94,4.84,22,10.79,11.94,11.69,20.67,25.19,22.08,42.42a29.54,29.54,0,0,0,8.34,18.22c1.1,1.19,1.43,3.08,2.12,4.64-1.58.63-3.16,1.81-4.74,1.81-32.62,0-65.25-.19-97.88-.29a6.56,6.56,0,0,0-2.76.7c-7.38,3.66-14.39,2.63-20.55-2.35s-7.23-12-4.78-19.49a24,24,0,0,0,.69-2.9A4.5,4.5,0,0,0,49.12,68.64ZM169.49,88.38c-1.84-4-3.54-7.69-5.3-11.39-11.74-24.8-25.89-37.87-53.33-33.38-6,1-10.72,3.18-14.53,7.77-8.86,10.71-10.55,24.06-14.48,37ZM53.2,78.85c0,6.62,3.54,10.56,10,12,5.41,1.17,10.57-1.25,12.67-6.35a87.54,87.54,0,0,0,2.92-9.53C83.54,58.48,88.31,42,93,25.57c2-7.17-.31-12.51-6.18-14.94-7.77-3.23-14.28-.2-16.67,8-5.48,18.82-10.83,37.69-16.2,56.55A34.16,34.16,0,0,0,53.2,78.85ZM63.64,18.2c.41-6.07-2.74-9.83-8.32-10.95a8.9,8.9,0,0,0-10.78,6.53Q38.92,32.6,33.7,51.55c-1.47,5.38,1.39,9.73,6.93,11.4s10-.61,11.88-6c.94-2.64,1.68-5.37,2.45-8.08C58,38.37,60.91,27.84,63.64,18.2Zm96.5,39.17a64.61,64.61,0,0,0-16.6-25.58C132,21.05,118.42,18.84,103.6,23.3c-1.54.46-3.54,1.74-4,3.09-2,5.78-3.43,11.73-5.24,18.19,11.13-8.4,23.43-8,35.49-6.65C142.81,39.36,152,47.61,160.14,57.37Zm-121.83-46c-1.8-1.56-3.63-4.32-5.91-4.76-2.1-.4-6.15,1.11-6.8,2.77a165.63,165.63,0,0,0-6.26,20.92c-.83,3.4,1.32,5.66,4.53,6.73s6.39.27,7.52-2.94C33.88,27.12,35.77,19.89,38.31,11.41ZM5.6,6.79C7.32,15.67,10,18.62,16.25,19.33l2.24-7.86Z" />
                <path class="cls-2" d="M169.49,88.38H81.85c3.93-12.94,5.62-26.29,14.48-37,3.81-4.59,8.57-6.8,14.53-7.77,27.44-4.49,41.59,8.58,53.33,33.38C166,80.69,167.65,84.41,169.49,88.38Z" />
                <path class="cls-2" d="M53.2,78.85a34.16,34.16,0,0,1,.71-3.63c5.37-18.86,10.72-37.73,16.2-56.55,2.39-8.24,8.9-11.27,16.67-8C92.65,13.06,95,18.4,93,25.57,88.31,42,83.54,58.48,78.81,74.93a87.54,87.54,0,0,1-2.92,9.53c-2.1,5.1-7.26,7.52-12.67,6.35C56.74,89.41,53.21,85.47,53.2,78.85Z" />
                <path class="cls-2" d="M63.64,18.2C60.91,27.84,58,38.37,55,48.89c-.77,2.71-1.51,5.44-2.45,8.08-1.92,5.37-6.46,7.61-11.88,6s-8.4-6-6.93-11.4q5.19-18.94,10.84-37.77A8.9,8.9,0,0,1,55.32,7.25C60.9,8.37,64.05,12.13,63.64,18.2Z" />
                <path class="cls-2" d="M160.14,57.37c-8.1-9.76-17.33-18-30.29-19.44-12.06-1.33-24.36-1.75-35.49,6.65,1.81-6.46,3.28-12.41,5.24-18.19.46-1.35,2.46-2.63,4-3.09,14.82-4.46,28.4-2.25,39.94,8.49A64.61,64.61,0,0,1,160.14,57.37Z" />
                <path class="cls-2" d="M38.31,11.41c-2.54,8.48-4.43,15.71-6.92,22.72-1.13,3.21-4.23,4-7.52,2.94s-5.36-3.33-4.53-6.73A165.63,165.63,0,0,1,25.6,9.42c.65-1.66,4.7-3.17,6.8-2.77C34.68,7.09,36.51,9.85,38.31,11.41Z" />
                <path class="cls-2" d="M5.6,6.79l12.89,4.68-2.24,7.86C10,18.62,7.32,15.67,5.6,6.79Z" />
            </g>
        </g>
    </g>
</svg>
